<svg width="48" height="48" viewBox="0 0 48 48" fill="none" xmlns="http://www.w3.org/2000/svg">
<path d="M44.4844 1.73438H3.51562C1.57706 1.73438 0 3.31144 0 5.25V36.1875C0 38.1261 1.57706 39.7031 3.51562 39.7031H18.521L17.6747 42.6651C17.3348 43.8546 16.0027 44.8594 14.7656 44.8594H9.46875C9.08044 44.8594 8.76562 45.1741 8.76562 45.5625C8.76562 45.9509 9.08044 46.2656 9.46875 46.2656H38.5312C38.9196 46.2656 39.2344 45.9509 39.2344 45.5625C39.2344 45.1741 38.9196 44.8594 38.5312 44.8594H33.2344C31.9973 44.8594 30.6652 43.8545 30.3253 42.6651L29.479 39.7031H44.4844C46.4229 39.7031 48 38.1261 48 36.1875V5.25C48 3.31144 46.4229 1.73438 44.4844 1.73438ZM3.51562 3.14062H44.4844C45.6475 3.14062 46.5938 4.08694 46.5938 5.25V29.8594H1.40625V5.25C1.40625 4.08694 2.35247 3.14062 3.51562 3.14062ZM28.9732 43.0514C29.1661 43.7269 29.5496 44.3474 30.0524 44.8594H17.9476C18.4504 44.3474 18.8339 43.7268 19.0268 43.0514L19.9835 39.7031H28.0164L28.9732 43.0514ZM44.4844 38.2969H3.51562C2.35247 38.2969 1.40625 37.3506 1.40625 36.1875V31.2656H46.5938V36.1875C46.5938 37.3506 45.6475 38.2969 44.4844 38.2969Z" fill="#317BE9"/>
<path d="M3.51562 28.4531H44.4844C44.8727 28.4531 45.1875 28.1384 45.1875 27.75V5.25C45.1875 4.86159 44.8727 4.54688 44.4844 4.54688H3.51562C3.12731 4.54688 2.8125 4.86159 2.8125 5.25V15.0938C2.8125 15.4822 3.12731 15.7969 3.51562 15.7969C3.90394 15.7969 4.21875 15.4822 4.21875 15.0938V5.95312H43.7812V27.0469H4.21875V17.9062C4.21875 17.5178 3.90394 17.2031 3.51562 17.2031C3.12731 17.2031 2.8125 17.5178 2.8125 17.9062V27.75C2.8125 28.1384 3.12731 28.4531 3.51562 28.4531Z" fill="#317BE9"/>
<path d="M24 32.6719C22.8368 32.6719 21.8906 33.6182 21.8906 34.7812C21.8906 35.9443 22.8368 36.8906 24 36.8906C25.1632 36.8906 26.1094 35.9443 26.1094 34.7812C26.1094 33.6182 25.1632 32.6719 24 32.6719ZM24 35.4844C23.6122 35.4844 23.2969 35.169 23.2969 34.7812C23.2969 34.3935 23.6122 34.0781 24 34.0781C24.3877 34.0781 24.7031 34.3935 24.7031 34.7812C24.7031 35.169 24.3877 35.4844 24 35.4844Z" fill="#317BE9"/>
</svg>
