<svg width="48" height="57" viewBox="0 0 48 57" fill="none" xmlns="http://www.w3.org/2000/svg">
<path d="M47.966 53.3509L45.5718 38.7878C45.3137 37.2188 44.2424 35.9583 42.7756 35.4986L36.3179 33.4742C36.1841 31.8341 35.5369 30.2868 34.4598 29.062C33.5982 28.0824 32.5145 27.369 31.3199 26.9754C31.5244 26.7397 31.7139 26.5048 31.8878 26.2751C33.4235 24.2459 34.2456 22.0103 34.4549 20.4847H34.9531C36.2488 20.4847 37.303 19.3895 37.303 18.0432V16.7916C37.303 15.8931 36.8166 15.079 36.085 14.6565V11.6469C36.085 11.1921 35.7301 10.8234 35.2924 10.8234C34.8547 10.8234 34.4999 11.192 34.4999 11.6469V15.0255C34.1913 15.0812 33.823 15.1774 33.4463 15.3423C33.4077 15.3569 33.3702 15.3738 33.3347 15.3941C33.2496 15.4344 33.1644 15.4769 33.0795 15.5248V8.88898C33.0795 7.05568 31.644 5.56426 29.8795 5.56426H27.6919C26.9374 5.56426 26.2003 5.83739 25.6162 6.33358L25.4015 6.51589C25.0073 6.85085 24.5096 7.03536 24.0002 7.03536C23.4908 7.03536 22.9931 6.85085 22.5988 6.51589L22.3842 6.33358C21.8001 5.8375 21.063 5.56426 20.3085 5.56426H18.1207C16.3562 5.56426 14.9207 7.05568 14.9207 8.88898V15.5248C14.8358 15.4769 14.7506 15.4344 14.6655 15.3941C14.63 15.3738 14.5926 15.3569 14.554 15.3423C14.1773 15.1774 13.8089 15.0812 13.5004 15.0255V6.48239C13.5004 3.81607 15.5882 1.64682 18.1545 1.64682H29.8456C32.412 1.64682 34.4997 3.81607 34.4997 6.48239V7.77678C34.4997 8.23157 34.8546 8.60025 35.2922 8.60025C35.7298 8.60025 36.0848 8.23168 36.0848 7.77678V6.48239C36.0848 2.90804 33.2858 0 29.8456 0H18.1545C14.7142 0 11.9153 2.90804 11.9153 6.48239V14.6566C11.1837 15.0791 10.6973 15.8931 10.6973 16.7917V18.0433C10.6973 19.3896 11.7515 20.4848 13.0472 20.4848H13.5454C13.7546 22.0104 14.5769 24.246 16.1125 26.2752C16.2862 26.5047 16.4756 26.7394 16.6799 26.9749C13.9337 27.8812 11.931 30.4464 11.6825 33.4742L5.22455 35.4986C3.75769 35.9583 2.68626 37.2188 2.42835 38.7878L1.45608 44.7018C1.3824 45.1501 1.67245 45.5754 2.10383 45.652C2.53511 45.7287 2.94471 45.4273 3.01849 44.979L3.99076 39.065C4.14678 38.1157 4.79496 37.3533 5.68235 37.0752L11.6552 35.2028V36.8316C10.2861 37.0935 9.12113 38.0706 8.64134 39.4244C8.51397 39.7837 8.43479 40.16 8.40604 40.5426L7.82879 48.2408C7.78524 48.8206 7.97836 49.3981 8.35837 49.8248C8.73838 50.2515 9.27737 50.4964 9.83707 50.4964H10.8252C11.2629 50.4964 11.6178 50.1279 11.6178 49.673C11.6178 49.2181 11.2629 48.8496 10.8252 48.8496H9.83707C9.71773 48.8496 9.60294 48.7976 9.52186 48.7064C9.44089 48.6155 9.39977 48.4925 9.40907 48.3689L9.98633 40.6707C10.0038 40.4388 10.0517 40.2109 10.1288 39.9934C10.4626 39.0516 11.3641 38.4139 12.3722 38.4065L12.5027 38.4055C12.5089 38.4054 12.5149 38.4054 12.5209 38.4054C13.5007 38.4054 14.368 38.9827 14.7338 39.88C14.8365 40.1316 14.8988 40.3976 14.9193 40.6707L15.4968 48.369C15.506 48.4925 15.4649 48.6155 15.3839 48.7065C15.3029 48.7975 15.188 48.8496 15.0687 48.8496H14.0806C13.6429 48.8496 13.288 49.2182 13.288 49.673C13.288 50.1278 13.6429 50.4964 14.0806 50.4964H15.0687C15.6284 50.4964 16.1675 50.2516 16.5474 49.8248C16.9275 49.3979 17.1206 48.8205 17.0771 48.2409L16.4996 40.5426C16.4658 40.0921 16.3627 39.6529 16.1933 39.2374C15.6712 37.9572 14.5549 37.0671 13.2401 36.8263V34.706L15.9646 33.8519C16.2124 34.3943 16.7036 35.5665 17.6766 38.0932C18.6573 40.6427 19.8761 43.9105 21.0451 47.0873C21.0535 47.114 21.0631 47.14 21.0739 47.1655C21.854 49.2863 22.6107 51.3635 23.258 53.1554C23.374 53.4767 23.6697 53.6896 24 53.6896C24.3303 53.6896 24.626 53.4767 24.742 53.1554C25.3892 51.3635 26.1459 49.2863 26.9261 47.1655C26.937 47.14 26.9465 47.1138 26.9549 47.0873C28.123 43.9123 29.3412 40.6466 30.3214 38.0979C31.2957 35.5679 31.7874 34.3947 32.0353 33.8519L34.7598 34.706V39.5696C32.8721 39.9505 31.4422 41.6803 31.4422 43.7513C31.4422 46.1006 33.2818 48.012 35.543 48.012C37.8043 48.012 39.6438 46.1007 39.6438 43.7513C39.6438 41.6871 38.2234 39.9615 36.3448 39.5731V35.2029L42.3177 37.0753C43.2051 37.3534 43.8532 38.1158 44.0093 39.0651L46.4035 53.6282C46.4433 53.8697 46.3815 54.1058 46.2293 54.2931C46.0773 54.4802 45.8637 54.5835 45.6279 54.5835H2.37211C2.13628 54.5835 1.92276 54.4803 1.77065 54.2931C1.61865 54.1058 1.55671 53.8698 1.59645 53.6282L2.38659 48.8221C2.46027 48.3738 2.17022 47.9484 1.73884 47.8719C1.30756 47.795 0.897956 48.0967 0.824174 48.5449L0.0340325 53.351C-0.0838281 54.0684 0.107603 54.7988 0.559173 55.3551C1.01095 55.9112 1.67171 56.2302 2.37211 56.2302H45.6279C46.3283 56.2302 46.9892 55.9112 47.4408 55.355C47.8924 54.7987 48.0838 54.0683 47.966 53.3509ZM34.5092 16.7031C34.9315 16.5937 35.2705 16.5957 35.2743 16.5958C35.4109 16.5977 35.5437 16.5645 35.6616 16.5003C35.6969 16.5915 35.7178 16.6896 35.7178 16.7917V18.0433C35.7178 18.4815 35.3747 18.838 34.9529 18.838H34.5092V16.7031ZM13.4907 18.838H13.0471C12.6253 18.838 12.2822 18.4815 12.2822 18.0433V16.7917C12.2822 16.6896 12.3032 16.5915 12.3384 16.5004C12.4562 16.5646 12.589 16.5978 12.7257 16.5958C12.7317 16.5969 13.0697 16.5949 13.4907 16.7035V18.838ZM15.0758 19.7613V17.598C15.3159 17.6727 15.5786 17.6625 15.8211 17.5574C16.2371 17.3771 16.5058 16.9583 16.5058 16.4904V8.88898C16.5058 7.96382 17.2303 7.21108 18.1207 7.21108H20.3083C20.6981 7.21108 21.079 7.3522 21.3807 7.60853L21.5953 7.79084C22.2719 8.36566 23.1259 8.68207 24 8.68207C24.8741 8.68207 25.7281 8.36555 26.4047 7.79084L26.6193 7.60853C26.9209 7.3522 27.3019 7.21108 27.6917 7.21108H29.8793C30.7697 7.21108 31.4942 7.96382 31.4942 8.88898V16.4905C31.4942 16.9583 31.7629 17.3772 32.1789 17.5575C32.3178 17.6177 32.4632 17.6469 32.6074 17.6469C32.7149 17.6469 32.8216 17.6306 32.9242 17.5987V19.7613C32.9242 20.9635 32.1242 23.2982 30.6416 25.2572C30.1505 25.9062 29.5193 26.6033 28.742 27.2127C28.7174 27.2298 28.6938 27.2483 28.6713 27.2681C27.4672 28.1931 25.919 28.9016 24 28.9016C22.081 28.9016 20.5328 28.1931 19.3286 27.268C19.3061 27.2483 19.2826 27.2298 19.2581 27.2128C18.4808 26.6033 17.8496 25.9062 17.3584 25.2572C15.8759 23.2983 15.0758 20.9635 15.0758 19.7613ZM29.1922 33.0649L24 37.097L18.8078 33.0649C19.3227 32.3849 19.6111 31.5122 19.6111 30.7333V29.406C20.8321 30.0882 22.2891 30.5486 24 30.5486C25.7109 30.5486 27.168 30.0882 28.3888 29.406V30.7333C28.3888 31.5122 28.6773 32.3849 29.1922 33.0649ZM17.4851 32.1457C17.0619 31.9783 16.5926 31.9508 16.1488 32.0759C16.1293 32.0806 16.1103 32.086 16.0918 32.0917L13.3538 32.9501C13.8168 30.5843 15.6658 28.7012 18.0261 28.3365V30.7333C18.0261 31.2499 17.8041 31.784 17.4851 32.1457ZM19.6361 38.7559C19.6346 38.752 19.6331 38.7482 19.6318 38.7444C19.5916 38.6389 19.552 38.5348 19.5126 38.4319C19.5055 38.4132 19.4985 38.3947 19.4914 38.3762C19.4529 38.2755 19.4147 38.1756 19.3771 38.0773C19.3745 38.0703 19.3718 38.0635 19.3692 38.0565C19.2518 37.7498 19.1385 37.4555 19.0297 37.1736C19.0217 37.1532 19.0138 37.1324 19.0059 37.1121C18.9746 37.0313 18.9438 36.9517 18.9133 36.873C18.9021 36.8442 18.891 36.8156 18.8799 36.787C18.8503 36.7108 18.8209 36.635 18.7919 36.5609C18.7833 36.5387 18.7748 36.5172 18.7663 36.4951C18.7137 36.3605 18.6623 36.2292 18.6122 36.1013C18.5987 36.0667 18.5849 36.0315 18.5714 35.9973C18.5518 35.9474 18.5326 35.8989 18.5134 35.85C18.4927 35.7973 18.472 35.745 18.4517 35.6936C18.4441 35.6744 18.4361 35.6541 18.4285 35.635C18.4224 35.6196 18.4168 35.6054 18.4108 35.5902C18.3192 35.3591 18.2322 35.1413 18.1497 34.9365C18.149 34.9349 18.1483 34.9332 18.1477 34.9316C18.1037 34.8225 18.0607 34.716 18.0193 34.6145C17.9979 34.5619 17.9767 34.5102 17.956 34.4594L22.4215 37.927L20.5556 38.7506C20.5523 38.752 20.549 38.7535 20.5457 38.755L19.7666 39.0989C19.7225 38.9828 19.6792 38.869 19.6361 38.7559ZM21.5271 43.7977C21.3706 43.3756 21.2129 42.9512 21.0549 42.5271C20.8077 41.8639 20.5717 41.2333 20.3458 40.6325L20.6416 40.502L21.85 41.9614L21.5271 43.7977ZM24.0153 50.4902C23.9926 50.4412 23.9655 50.395 23.9343 50.3519C23.5761 49.3684 23.1216 48.124 22.6185 46.7548L23.3585 42.5458H24.6415L25.3815 46.7548C24.8543 48.1892 24.3809 49.4863 24.0153 50.4902ZM24.9388 40.8991H23.0612L22.1728 39.8261L24 39.0197L25.8272 39.8261L24.9388 40.8991ZM26.9451 42.5271C26.7871 42.9512 26.6294 43.3756 26.4729 43.7977L26.15 41.9613L27.3584 40.5019L27.6542 40.6324C27.4283 41.2332 27.1923 41.8639 26.9451 42.5271ZM29.9808 34.6145C29.9415 34.7107 29.9007 34.8116 29.8592 34.9146C29.8538 34.928 29.8483 34.9416 29.8429 34.9551C29.8018 35.0572 29.7599 35.1615 29.7166 35.2701C29.7138 35.2773 29.7108 35.2849 29.7079 35.2921C29.6705 35.3858 29.6321 35.4824 29.5931 35.581C29.5858 35.5994 29.579 35.6164 29.5717 35.635C29.563 35.6571 29.5537 35.6805 29.5449 35.7027C29.5276 35.7467 29.51 35.7915 29.4922 35.8363C29.4704 35.8915 29.4487 35.9466 29.4264 36.0031C29.4194 36.0211 29.4121 36.0399 29.4049 36.058C29.3497 36.1985 29.293 36.3432 29.2351 36.4919C29.226 36.5152 29.217 36.5381 29.208 36.5617C29.1793 36.6352 29.1501 36.7102 29.1209 36.7856C29.1094 36.8152 29.0979 36.8446 29.0864 36.8745C29.0562 36.9523 29.0256 37.0312 28.9948 37.1111C28.9861 37.1334 28.9773 37.1563 28.9686 37.1787C28.8611 37.4568 28.7496 37.7468 28.6339 38.049C28.6301 38.059 28.6263 38.0688 28.6225 38.0789C28.585 38.1765 28.5472 38.2758 28.5089 38.3759C28.5019 38.3945 28.4947 38.4132 28.4875 38.432C28.4479 38.5354 28.4081 38.64 28.3677 38.7462C28.367 38.7482 28.3662 38.7502 28.3655 38.752C28.3219 38.8665 28.2782 38.9816 28.2336 39.0991L27.4538 38.7549C27.451 38.7537 27.4483 38.7525 27.4456 38.7513L25.5787 37.9272L30.0442 34.4596C30.0233 34.5102 30.0021 34.5618 29.9808 34.6145ZM31.9082 32.0918C31.9081 32.0918 31.9079 32.0917 31.9078 32.0917C31.9071 32.0915 31.9064 32.0914 31.9057 32.0911C31.4459 31.9477 30.9555 31.9715 30.515 32.1457C30.1959 31.784 29.974 31.2499 29.974 30.7333V28.3353C32.3491 28.699 34.1925 30.5644 34.6495 32.9511L31.9082 32.0918ZM38.0588 43.7513C38.0588 45.1927 36.9302 46.3652 35.543 46.3652C34.1559 46.3652 33.0273 45.1927 33.0273 43.7513C33.0273 42.31 34.1559 41.1375 35.543 41.1375C36.9302 41.1375 38.0588 42.31 38.0588 43.7513Z" fill="#317BE9"/>
</svg>
