<svg width="48" height="48" viewBox="0 0 48 48" fill="none" xmlns="http://www.w3.org/2000/svg">
<g clip-path="url(#clip0_258_2579)">
<path d="M13.4244 20.5289L17.8073 15.2561C18.0555 14.9574 18.0147 14.5141 17.716 14.2659C17.4175 14.0177 16.974 14.0586 16.7258 14.3572L12.9689 18.877L12.1477 17.5431C11.9442 17.2124 11.5111 17.1092 11.1803 17.3129C10.8496 17.5166 10.7466 17.9497 10.9501 18.2803L12.2848 20.448C12.5371 20.8577 13.1171 20.8987 13.4244 20.5289Z" fill="#317BE9"/>
<path d="M10.9504 27.5616L12.285 29.7294C12.5372 30.1391 13.1171 30.1801 13.4245 29.8102L17.8074 24.5373C18.0556 24.2387 18.0147 23.7954 17.7161 23.5472C17.4176 23.299 16.9741 23.3398 16.7259 23.6385L12.9689 28.1583L12.1478 26.8244C11.9442 26.4937 11.5112 26.3905 11.1804 26.5942C10.8498 26.7979 10.7468 27.2311 10.9504 27.5616Z" fill="#317BE9"/>
<path d="M10.9504 36.9054L12.285 39.0732C12.5372 39.4829 13.1171 39.5238 13.4245 39.154L17.8074 33.8811C18.0556 33.5824 18.0147 33.1392 17.7161 32.8909C17.4176 32.6428 16.9741 32.6835 16.7259 32.9822L12.9689 37.502L12.1478 36.1681C11.9442 35.8375 11.5112 35.7343 11.1804 35.938C10.8498 36.1417 10.7468 36.5748 10.9504 36.9054Z" fill="#317BE9"/>
<path d="M42.0469 39.6945C41.6586 39.6945 41.3438 40.0093 41.3438 40.3977V45.5159C41.3438 46.1104 40.8601 46.5941 40.2656 46.5941H7.73438C7.13991 46.5941 6.65625 46.1104 6.65625 45.5159V14.7012C6.65625 14.3128 6.34144 13.998 5.95312 13.998C5.56481 13.998 5.25 14.3128 5.25 14.7012V45.5159C5.25 46.8858 6.3645 48.0003 7.73438 48.0003H40.2656C41.6355 48.0003 42.75 46.8858 42.75 45.5159V40.3977C42.75 40.0093 42.4352 39.6945 42.0469 39.6945Z" fill="#317BE9"/>
<path d="M40.2656 5.41791H36.8261V2.5125C36.8261 1.12716 35.6991 0 34.3136 0C32.9282 0 31.8011 1.12706 31.8011 2.5125V5.41791H26.5125V2.5125C26.5125 1.12706 25.3853 0 24 0C22.6147 0 21.4875 1.12706 21.4875 2.5125V5.41791H16.1988V2.5125C16.1988 1.12716 15.0717 0 13.6863 0C12.3009 0 11.1738 1.12706 11.1738 2.5125V5.41791H7.73438C6.3645 5.41791 5.25 6.53241 5.25 7.90228V11.4196C5.25 11.808 5.56481 12.1227 5.95312 12.1227C6.34144 12.1227 6.65625 11.808 6.65625 11.4196V7.90228C6.65625 7.30781 7.13991 6.82416 7.73438 6.82416H11.1738V7.94062C11.1738 9.32597 12.3008 10.4531 13.6863 10.4531C15.0717 10.4531 16.1988 9.32606 16.1988 7.94062V6.82416H21.4875V7.94062C21.4875 9.32597 22.6146 10.4531 24 10.4531C25.3854 10.4531 26.5125 9.32606 26.5125 7.94062V6.82416H31.8012V7.94062C31.8012 9.32597 32.9283 10.4531 34.3137 10.4531C35.6991 10.4531 36.8262 9.32606 36.8262 7.94062V6.82416H40.2656C40.8601 6.82416 41.3438 7.30781 41.3438 7.90228V37.1161C41.3438 37.5045 41.6586 37.8192 42.0469 37.8192C42.4352 37.8192 42.75 37.5045 42.75 37.1161V7.90228C42.75 6.53241 41.6355 5.41791 40.2656 5.41791ZM14.7926 7.94062C14.7926 8.55066 14.2964 9.04688 13.6864 9.04688C13.0764 9.04688 12.5801 8.55066 12.5801 7.94062C12.5801 6.44184 12.5801 2.98162 12.5801 2.5125C12.5801 1.90247 13.0763 1.40625 13.6864 1.40625C14.2964 1.40625 14.7926 1.90247 14.7926 2.5125V7.94062ZM25.1062 7.94062C25.1062 8.55066 24.61 9.04688 24 9.04688C23.39 9.04688 22.8937 8.55066 22.8937 7.94062C22.8937 6.44184 22.8937 2.98162 22.8937 2.5125C22.8937 1.90247 23.39 1.40625 24 1.40625C24.61 1.40625 25.1062 1.90247 25.1062 2.5125V7.94062ZM35.42 7.94062C35.42 8.55066 34.9237 9.04688 34.3137 9.04688C33.7037 9.04688 33.2075 8.55066 33.2075 7.94062C33.2075 6.44184 33.2075 2.98162 33.2075 2.5125C33.2075 1.90247 33.7037 1.40625 34.3137 1.40625C34.9237 1.40625 35.42 1.90247 35.42 2.5125V7.94062Z" fill="#317BE9"/>
<path d="M20.788 21.1113H35.6005C36.8153 21.1113 37.8037 20.123 37.8037 18.9082C37.8037 17.6934 36.8153 16.7051 35.6005 16.7051H20.788C19.5732 16.7051 18.5849 17.6934 18.5849 18.9082C18.5849 20.123 19.5732 21.1113 20.788 21.1113ZM20.788 18.1113H35.6005C36.0399 18.1113 36.3974 18.4688 36.3974 18.9082C36.3974 19.3476 36.0399 19.7051 35.6005 19.7051H20.788C20.3486 19.7051 19.9911 19.3476 19.9911 18.9082C19.9911 18.4688 20.3486 18.1113 20.788 18.1113Z" fill="#317BE9"/>
<path d="M20.788 30.4121H35.6005C36.8153 30.4121 37.8037 29.4238 37.8037 28.209C37.8037 26.9942 36.8153 26.0059 35.6005 26.0059H20.788C19.5732 26.0059 18.5849 26.9942 18.5849 28.209C18.5849 29.4238 19.5732 30.4121 20.788 30.4121ZM20.788 27.4121H35.6005C36.0399 27.4121 36.3974 27.7696 36.3974 28.209C36.3974 28.6484 36.0399 29.0059 35.6005 29.0059H20.788C20.3486 29.0059 19.9911 28.6484 19.9911 28.209C19.9911 27.7696 20.3486 27.4121 20.788 27.4121Z" fill="#317BE9"/>
<path d="M20.788 39.7129H35.6005C36.8153 39.7129 37.8037 38.7246 37.8037 37.5098C37.8037 36.295 36.8153 35.3066 35.6005 35.3066H20.788C19.5732 35.3066 18.5849 36.295 18.5849 37.5098C18.5849 38.7246 19.5732 39.7129 20.788 39.7129ZM20.788 36.7129H35.6005C36.0399 36.7129 36.3974 37.0704 36.3974 37.5098C36.3974 37.9492 36.0399 38.3066 35.6005 38.3066H20.788C20.3486 38.3066 19.9911 37.9492 19.9911 37.5098C19.9911 37.0704 20.3486 36.7129 20.788 36.7129Z" fill="#317BE9"/>
</g>
<defs>
<clipPath id="clip0_258_2579">
<rect width="48" height="48" fill="white"/>
</clipPath>
</defs>
</svg>
