<svg width="48" height="48" viewBox="0 0 48 48" fill="none" xmlns="http://www.w3.org/2000/svg">
<path d="M40.421 1.26367C43.8174 1.26367 46.7368 4.00174 46.7368 7.57946V40.4216C46.7368 43.8179 44.0027 46.7373 40.421 46.7373H7.57894C4.18262 46.7373 1.26315 43.9898 1.26315 40.4216V7.57946C1.26315 4.18314 3.97958 1.26367 7.57894 1.26367H40.421ZM7.57894 3.78999C5.56082 3.78999 3.78947 5.41246 3.78947 7.57946V40.4216C3.78947 42.4397 5.39465 44.211 7.57894 44.211H40.421C42.4392 44.211 44.2105 42.5542 44.2105 40.4216V7.57946C44.2105 5.56134 42.547 3.78999 40.421 3.78999H7.57894ZM35.8281 15.9618C36.2835 16.4172 36.3595 17.2125 35.8281 17.7482L21.5372 32.0392C21.0705 32.5058 20.2714 32.5994 19.7202 32.0075L14.2341 26.1252C13.7583 25.615 13.7862 24.8157 14.2964 24.3399C14.7673 23.9007 15.5634 23.8322 16.0816 24.4021L20.6754 29.3272L34.0418 15.9618C34.5351 15.4685 35.3349 15.4685 35.8281 15.9618Z" fill="#317BE9"/>
</svg>
