<svg width="40" height="60" viewBox="0 0 40 60" fill="none" xmlns="http://www.w3.org/2000/svg">
<path d="M20 0C8.97222 0 0 8.96655 0 19.9874C0 23.2958 0.827695 26.5762 2.40117 29.4858L18.9063 59.3179C19.126 59.7156 19.5448 59.962 20 59.962C20.4553 59.962 20.874 59.7156 21.0937 59.3179L37.605 29.4759C39.1724 26.5762 40.0001 23.2957 40.0001 19.9873C40.0001 8.96655 31.0278 0 20 0ZM20 29.981C14.4861 29.981 10.0001 25.4978 10.0001 19.9874C10.0001 14.477 14.4861 9.99375 20 9.99375C25.5139 9.99375 30 14.477 30 19.9874C30 25.4978 25.5139 29.981 20 29.981Z" fill="#317BE9"/>
</svg>
