<svg width="32" height="32" viewBox="0 0 32 32" fill="none" xmlns="http://www.w3.org/2000/svg">
<g clip-path="url(#clip0_621_5650)">
<path d="M10.9112 30.9293H18.4622C19.9116 30.9293 21.0853 29.7625 21.0853 28.3215V23.5769C21.0853 22.136 22.259 20.9691 23.7084 20.9691H28.4773C29.9267 20.9691 31.1003 19.8023 31.1003 18.3613V13.4586C31.1003 12.0176 29.9267 10.8508 28.4773 10.8508H23.7119C22.2625 10.8508 21.0888 9.68398 21.0888 8.24302V3.49841C21.0888 2.05745 19.9152 0.890625 18.4658 0.890625H13.5342C12.0848 0.890625 10.9112 2.05745 10.9112 3.49841V8.2395C10.9112 9.68046 9.73749 10.8473 8.28809 10.8473H3.51565C2.06624 10.8473 0.892578 12.0141 0.892578 13.4551V18.7831C0.892578 19.9851 1.87535 20.9621 3.08436 20.9621" stroke="#2E2E2E" stroke-width="3" stroke-miterlimit="10"/>
<path d="M11.1232 30.8443C16.2032 26.532 17.8789 23.5833 18.4339 22.072C18.646 21.5765 18.7627 21.0317 18.7627 20.4589C18.7627 18.1639 16.8926 16.3047 14.5841 16.3047C13.0004 16.3047 11.6217 17.1798 10.9147 18.4732C10.2076 17.1833 8.82893 16.3047 7.24518 16.3047C4.93674 16.3047 3.06665 18.1639 3.06665 20.4589C3.06665 20.6065 3.07372 20.7506 3.08786 20.8947" stroke="#317BE9" stroke-width="3" stroke-miterlimit="10" stroke-linecap="round" stroke-linejoin="round"/>
</g>
<defs>
<clipPath id="clip0_621_5650">
<rect width="32" height="32" fill="white"/>
</clipPath>
</defs>
</svg>
