<svg width="37" height="37" viewBox="0 0 37 37" fill="none" xmlns="http://www.w3.org/2000/svg">
<path d="M37 18.5C37 28.7173 28.7173 37 18.5 37C8.28273 37 0 28.7173 0 18.5C0 8.28273 8.28273 0 18.5 0C28.7173 0 37 8.28273 37 18.5Z" fill="#F8F8F8"/>
<path d="M18 11C18 10.4477 18.4477 10 19 10C19.5523 10 20 10.4477 20 11L18 11ZM19.7071 26.7071C19.3166 27.0976 18.6834 27.0976 18.2929 26.7071L11.9289 20.3431C11.5384 19.9526 11.5384 19.3195 11.9289 18.9289C12.3195 18.5384 12.9526 18.5384 13.3431 18.9289L19 24.5858L24.6569 18.9289C25.0474 18.5384 25.6805 18.5384 26.0711 18.9289C26.4616 19.3195 26.4616 19.9526 26.0711 20.3431L19.7071 26.7071ZM20 11L20 26L18 26L18 11L20 11Z" fill="#2E2E2E"/>
</svg>
