<svg width="51" height="51" viewBox="0 0 51 51" fill="none" xmlns="http://www.w3.org/2000/svg">
<g clip-path="url(#clip0_259_4986)">
<path d="M17.3895 49.2941H29.424C31.734 49.2941 33.6045 47.4344 33.6045 45.1379V37.5762C33.6045 35.2797 35.475 33.42 37.785 33.42H45.3855C47.6954 33.42 49.566 31.5604 49.566 29.2639V21.4501C49.566 19.1536 47.6954 17.2939 45.3855 17.2939H37.7907C35.4807 17.2939 33.6101 15.4343 33.6101 13.1378V5.57607C33.6101 3.27955 31.7396 1.41992 29.4296 1.41992H21.57C19.26 1.41992 17.3895 3.27955 17.3895 5.57607V13.1322C17.3895 15.4287 15.5189 17.2883 13.209 17.2883H5.60289C3.29289 17.2883 1.42236 19.148 1.42236 21.4445V29.936C1.42236 31.8517 2.98865 33.4088 4.91552 33.4088" stroke="white" stroke-width="3" stroke-miterlimit="10"/>
<path d="M17.7274 49.1598C25.8236 42.287 28.4942 37.5876 29.3788 35.179C29.7168 34.3892 29.9027 33.521 29.9027 32.608C29.9027 28.9504 26.9223 25.9873 23.2432 25.9873C20.7191 25.9873 18.5218 27.382 17.395 29.4433C16.2681 27.3876 14.0708 25.9873 11.5467 25.9873C7.86766 25.9873 4.88721 28.9504 4.88721 32.608C4.88721 32.8433 4.89848 33.0729 4.92101 33.3026" stroke="#317BE9" stroke-width="3" stroke-miterlimit="10" stroke-linecap="round" stroke-linejoin="round"/>
</g>
<defs>
<clipPath id="clip0_259_4986">
<rect width="51" height="51" fill="white"/>
</clipPath>
</defs>
</svg>
